<?xml version="1.0" encoding="UTF-8" standalone="no"?>
<!-- Created with Inkscape (http://www.inkscape.org/) -->

<svg
   width="81.622398mm"
   height="16.528034mm"
   viewBox="0 0 81.622396 16.528034"
   version="1.1"
   id="svg5"
   xml:space="preserve"
   inkscape:version="1.2.2 (b0a8486541, 2022-12-01)"
   sodipodi:docname="logo.svg"
   xmlns:inkscape="http://www.inkscape.org/namespaces/inkscape"
   xmlns:sodipodi="http://sodipodi.sourceforge.net/DTD/sodipodi-0.dtd"
   xmlns="http://www.w3.org/2000/svg"
   xmlns:svg="http://www.w3.org/2000/svg"><sodipodi:namedview
     id="namedview7"
     pagecolor="#ffffff"
     bordercolor="#000000"
     borderopacity="0.25"
     inkscape:showpageshadow="2"
     inkscape:pageopacity="0.0"
     inkscape:pagecheckerboard="0"
     inkscape:deskcolor="#d1d1d1"
     inkscape:document-units="mm"
     showgrid="false"
     inkscape:zoom="1.2938725"
     inkscape:cx="342.76948"
     inkscape:cy="260.45844"
     inkscape:window-width="2560"
     inkscape:window-height="1371"
     inkscape:window-x="0"
     inkscape:window-y="32"
     inkscape:window-maximized="1"
     inkscape:current-layer="layer1" /><defs
     id="defs2" /><g
     inkscape:label="Layer 1"
     inkscape:groupmode="layer"
     id="layer1"
     transform="translate(-9.6278566,-10.082473)"><path
       d="m 23.247008,17.86406 c -1.211709,0 -2.310833,0.475763 -3.116898,1.244291 l -1.614777,-1.579679 c 0.535512,-0.764839 0.850114,-1.688676 0.850114,-2.683648 0,-0.369654 -0.04756,-0.727915 -0.129374,-1.073563 h 1.976829 c 0.240242,1.538002 1.589482,2.723285 3.227766,2.723285 1.807196,0 3.277583,-1.438069 3.277583,-3.205965 0,-1.76805 -1.470455,-3.206308 -3.277583,-3.206308 -1.638214,0 -2.987437,1.185644 -3.227766,2.723629 h -2.322763 c -0.78289,-1.607375 -2.455205,-2.723629 -4.393444,-2.723629 -2.684659,0 -4.8688384,2.136453 -4.8688384,4.762447 0,2.327946 1.7177684,4.267756 3.9778704,4.678882 v 1.501608 c -1.133261,0.224406 -1.988934,1.205411 -1.988934,2.378907 0,1.338737 1.113315,2.42798 2.482222,2.42798 1.36836,0 2.481694,-1.089311 2.481694,-2.42798 0,-1.173443 -0.855585,-2.154468 -1.988233,-2.378907 v -1.422779 c 1.273651,-0.02441 2.427665,-0.5281 3.282498,-1.335784 l 1.626283,1.590954 c -0.45664,0.685549 -0.724702,1.501795 -0.724702,2.379249 0,2.411681 2.0056,4.373457 4.470629,4.373457 2.465555,0 4.471156,-1.961776 4.471156,-4.373457 0,-2.411508 -2.005601,-4.373111 -4.471156,-4.373111 z m 1.193624,-6.816366 c 1.262968,0 2.290838,1.005409 2.290838,2.241123 0,1.235713 -1.02787,2.240777 -2.290838,2.240777 -1.262968,0 -2.290837,-1.005064 -2.290837,-2.240777 0,-1.235714 1.027869,-2.241123 2.290837,-2.241123 z M 15.593925,23.40449 c 0,0.806534 -0.670637,1.462862 -1.494929,1.462862 -0.824831,0 -1.495544,-0.656328 -1.495544,-1.462862 0,-0.806536 0.670638,-1.46252 1.495544,-1.46252 0.824202,0 1.494929,0.655984 1.494929,1.46252 z m -1.097282,-4.762104 c -2.1405,0 -3.882093,-1.70355 -3.882093,-3.79726 0,-2.093726 1.741611,-3.797259 3.882093,-3.797259 2.140499,0 3.882089,1.703549 3.882089,3.797259 0,0.881607 -0.311444,1.691952 -0.828799,2.337212 -0.01672,0.0126 -0.03659,0.01871 -0.05193,0.03371 -0.04001,0.03914 -0.06667,0.08551 -0.09011,0.132648 -0.711967,0.79111 -1.751625,1.293744 -2.911303,1.293744 z m 8.750401,7.003225 c -1.920871,0 -3.483882,-1.528821 -3.483882,-3.408269 0,-1.87924 1.562975,-3.407925 3.483882,-3.407925 1.921573,0 3.484407,1.528823 3.484407,3.407925 0,1.879584 -1.562975,3.408269 -3.484407,3.408269 z"
       fill="#1f78b3"
       id="path222"
       style="stroke-width:0.0173495" /><g
       aria-label="CS2Italy"
       transform="matrix(0.67970652,0,0,0.81948623,8.519034,3.6415145)"
       id="text393"
       style="font-weight:900;font-size:21.2171px;line-height:0.2;font-family:Roboto;-inkscape-font-specification:'Roboto Heavy';fill:#ffffff;stroke:#ffffff;stroke-width:0.17957"><g
         aria-label="CS2ITALY"
         transform="scale(0.96401302,1.0373304)"
         id="text3429"
         style="font-weight:bold;font-size:25.0078px;font-family:'Red Hat Display';-inkscape-font-specification:'Red Hat Display Bold';stroke-width:0.211652"><path
           d="m 40.187159,19.902982 h 3.589987 q -0.122109,3.028288 -1.709518,4.603487 -1.587409,1.575198 -4.444745,1.575198 -2.930602,0 -4.554643,-1.917102 -1.624042,-1.917102 -1.660675,-5.53151 v -3.187029 q 0,-3.724306 1.672885,-5.6780407 1.685096,-1.9659451 4.591276,-1.9659451 2.90618,0 4.420324,1.6362525 1.514144,1.6240413 1.709517,4.6523293 h -3.589986 q -0.06105,-1.90489 -0.598331,-2.600908 -0.537277,-0.708229 -1.941524,-0.708229 -1.379825,0 -2.014788,0.989078 -0.634964,0.989078 -0.659386,3.455668 v 3.235872 q 0,2.515433 0.549488,3.577776 0.549488,1.062343 2.075843,1.062343 1.330981,0 1.917102,-0.634964 0.58612,-0.634963 0.647174,-2.564276 z"
           style="font-family:'Roboto Condensed';-inkscape-font-specification:'Roboto Condensed,  Bold'"
           id="path5727" /><path
           d="m 53.509185,21.160699 q 0,-0.915813 -0.451801,-1.501934 -0.43959,-0.598331 -2.332271,-1.367614 -1.89268,-0.769283 -3.309137,-1.953734 -1.501933,-1.257717 -1.501933,-3.553354 0,-2.246795 1.575198,-3.602198 1.575198,-1.367614 4.053999,-1.367614 2.552065,0 4.066209,1.5385658 1.526355,1.5385662 1.526355,3.9441012 h -3.589987 q 0,-1.111186 -0.488433,-1.831626 -0.476223,-0.72044 -1.575199,-0.72044 -1.013499,0 -1.501933,0.598332 -0.476223,0.598331 -0.476223,1.45309 0,0.866969 0.72044,1.453089 0.73265,0.586121 1.929313,1.111187 2.491011,0.891391 3.724306,2.234583 1.233294,1.343193 1.233294,3.541144 0,2.344481 -1.477511,3.651041 -1.477512,1.294349 -4.017366,1.294349 -1.526355,0 -2.942813,-0.622753 -1.404246,-0.622753 -2.307848,-1.917102 -0.903602,-1.294349 -0.903602,-3.321348 h 3.602197 q 0,1.611831 0.634964,2.271216 0.647174,0.659385 1.917102,0.659385 1.037921,0 1.4653,-0.561698 0.42738,-0.57391 0.42738,-1.428668 z"
           style="font-family:'Roboto Condensed';-inkscape-font-specification:'Roboto Condensed,  Bold'"
           id="path5729" /><path
           d="M 69.712968,22.967903 V 25.83745 H 59.223857 v -2.442168 l 4.811071,-6.11763 q 1.025711,-1.428669 1.404247,-2.356692 0.390746,-0.940235 0.390746,-1.721729 0,-1.17224 -0.415168,-1.843837 -0.415169,-0.683807 -1.172241,-0.683807 -0.928024,0 -1.392035,0.854759 -0.451801,0.842548 -0.451801,2.124686 h -3.467879 q 0,-2.393324 1.440879,-4.1150526 1.440879,-1.7339392 3.93189,-1.7339392 2.442168,0 3.712096,1.3554032 1.282138,1.3431926 1.282138,3.6998846 0,1.782782 -0.903602,3.394613 -0.891392,1.59962 -2.454379,3.455668 l -2.283427,3.260294 z"
           style="font-family:'Roboto Condensed';-inkscape-font-specification:'Roboto Condensed,  Bold'"
           id="path5731" /><path
           d="M 75.891652,8.0584678 V 25.83745 H 72.301665 V 8.0584678 Z"
           style="font-family:'Roboto Condensed';-inkscape-font-specification:'Roboto Condensed,  Bold'"
           id="path5733" /><path
           d="M 77.75991,11.050123 V 8.0584678 H 90.080647 V 11.050123 H 85.672534 V 25.83745 H 82.082547 V 11.050123 Z"
           style="font-family:'Roboto Condensed';-inkscape-font-specification:'Roboto Condensed,  Bold'"
           id="path5735" /><path
           d="M 89.518951,25.83745 95.074883,8.0584678 h 3.284716 L 103.95216,25.83745 h -3.82199 l -0.952445,-3.63883 h -4.896546 l -0.952446,3.63883 z m 5.543721,-6.630486 h 3.33356 l -1.672885,-6.349636 z"
           style="font-family:'Roboto Condensed';-inkscape-font-specification:'Roboto Condensed,  Bold'"
           id="path5737" /><path
           d="m 115.51583,22.858005 v 2.979445 h -9.89078 V 8.0584678 h 3.6022 V 22.858005 Z"
           style="font-family:'Roboto Condensed';-inkscape-font-specification:'Roboto Condensed,  Bold'"
           id="path5739" /><path
           d="m 116.85902,8.0584678 2.68639,7.9858892 2.67417,-7.9858892 h 3.91968 l -4.77444,11.3316592 v 6.447323 h -3.63883 V 19.390127 L 112.95155,8.0584678 Z"
           style="font-family:'Roboto Condensed';-inkscape-font-specification:'Roboto Condensed,  Bold'"
           id="path5741" /></g></g></g></svg>
